<svg width="220" height="220" viewBox="0 0 220 220" fill="none" xmlns="http://www.w3.org/2000/svg">
<rect width="220" height="220" fill="white"/>
<path d="M145.3 174.722C137.69 174.722 130.09 172.732 123.23 168.772C114.88 163.952 108.47 156.722 104.69 147.872C99.18 134.952 100.04 120.572 107.05 108.412C110.61 102.252 115.66 96.9917 121.65 93.1917C122.53 92.6317 123.45 92.0917 124.39 91.5917C131.89 86.7317 136.35 78.5317 136.35 69.6117C136.35 66.1817 135.69 62.8517 134.4 59.6917C132.36 54.7117 128.72 50.3716 124.15 47.4816C122.69 46.6416 121.16 45.8717 119.61 45.1817C113.52 42.4917 107.04 41.1317 100.34 41.1317C94.8 41.1317 89.38 42.0717 84.21 43.9217C79.58 45.5817 74.47 43.2116 72.75 38.5917C71.03 33.9816 73.34 28.8417 77.93 27.0617C103.26 17.2617 131.25 19.4216 154.74 32.9817C183.43 49.5416 200.49 80.4017 199.27 113.542C199.21 116.732 198.92 119.942 198.4 123.092C197.11 130.892 194.44 138.352 190.46 145.242C185.88 153.182 179.83 159.942 172.49 165.342C170.47 166.922 168.3 168.322 166.04 169.522C159.51 172.992 152.4 174.722 145.3 174.722ZM150.49 51.5516C150.69 51.9916 150.88 52.4317 151.06 52.8717C153.25 58.2017 154.35 63.8417 154.35 69.6117C154.35 84.8417 146.65 98.8116 133.75 106.972C133.55 107.102 133.34 107.222 133.12 107.332C132.49 107.662 131.87 108.022 131.29 108.392C127.69 110.672 124.78 113.702 122.64 117.412C118.48 124.622 117.97 133.152 121.24 140.812C123.48 146.052 127.28 150.332 132.23 153.192C140.09 157.732 149.59 157.892 157.63 153.632C158.99 152.912 160.3 152.062 161.52 151.102C161.6 151.042 161.68 150.982 161.76 150.912C167.13 146.982 171.55 142.052 174.9 136.242C177.79 131.232 179.74 125.812 180.67 120.152C181.05 117.852 181.26 115.492 181.3 113.152C181.3 113.082 181.3 113.022 181.31 112.952C182.23 88.3617 170.54 65.3116 150.49 51.5516Z" fill="#FD009C"/>
<path d="M59.92 181.682C57.94 181.682 55.95 181.032 54.28 179.692C33.13 162.662 21 137.332 21 110.212C21 77.0819 39.2 46.8819 68.5 31.3719C71.29 29.8219 74.22 28.4719 77.2 27.3519C84.6 24.5719 92.4 23.1519 100.36 23.1519C109.53 23.1519 118.41 25.0119 126.75 28.6619C129.13 29.6219 131.43 30.8019 133.59 32.1519C146.59 40.2919 154.35 54.3019 154.35 69.6119C154.35 79.2519 151.3 88.4218 145.52 96.1118C137.09 107.352 124.2 113.792 110.17 113.792C103.06 113.792 95.97 112.052 89.69 108.752C88.76 108.262 87.84 107.742 86.94 107.182C78.98 103.122 69.65 103.352 61.92 107.812C58.95 109.522 56.39 111.762 54.3 114.462C51 118.722 49.07 124.042 48.84 129.442C48.84 131.122 48.94 132.832 49.12 134.522C49.84 141.132 51.9 147.432 55.25 153.232C58.02 158.022 61.55 162.262 65.73 165.812C69.49 168.992 69.98 174.602 66.85 178.402C65.08 180.562 62.51 181.682 59.92 181.682ZM100.35 41.1419C94.56 41.1419 88.9 42.1719 83.53 44.1919C81.34 45.0119 79.2 46.0019 77.16 47.1419C77.1 47.1719 77.05 47.2019 76.99 47.2319C55.21 58.7319 41.1 80.3819 39.21 104.622C39.49 104.232 39.78 103.852 40.07 103.472C43.6 98.9118 47.92 95.1418 52.92 92.2518C66.11 84.6318 82.06 84.3218 95.57 91.4118C95.78 91.5218 95.99 91.6419 96.19 91.7719C96.79 92.1519 97.41 92.5118 98.03 92.8318C101.8 94.8118 105.89 95.8119 110.16 95.8119C118.48 95.8119 126.12 91.9919 131.13 85.3219C134.55 80.7619 136.36 75.3319 136.36 69.6219C136.36 60.5419 131.75 52.2419 124.04 47.4119C122.74 46.5919 121.34 45.8919 119.91 45.3119C119.81 45.2719 119.72 45.2319 119.63 45.1919C113.54 42.5019 107.05 41.1419 100.35 41.1419Z" fill="#FD009C"/>
<path d="M110.16 199.411C93.6901 199.411 77.2501 194.841 62.7201 185.721C59.9801 184.081 57.3501 182.221 54.8901 180.201C48.7801 175.181 43.6601 169.141 39.6801 162.251C35.1001 154.311 32.2601 145.691 31.2601 136.641C30.9101 134.101 30.7701 131.521 30.8601 128.971C31.4101 113.641 39.6601 99.9215 52.9201 92.2615C61.2701 87.4415 70.7301 85.5015 80.2901 86.6615C94.2401 88.3515 106.26 96.2815 113.28 108.441C116.84 114.601 118.87 121.611 119.16 128.701C119.2 129.751 119.21 130.811 119.17 131.871C119.63 140.791 124.5 148.761 132.23 153.221C135.2 154.931 138.42 156.031 141.8 156.491C147.14 157.211 152.71 156.231 157.5 153.721C158.96 152.871 160.39 151.941 161.76 150.941C167.13 147.011 171.55 142.081 174.9 136.271C177.67 131.471 179.57 126.301 180.55 120.901C181.43 116.061 186.04 112.811 190.89 113.641C195.74 114.461 199.04 119.031 198.28 123.891C194.1 150.721 178.24 173.891 154.75 187.451C140.9 195.431 125.52 199.411 110.16 199.411ZM48.8301 129.601C48.7701 131.141 48.8601 132.701 49.0801 134.231C49.0901 134.331 49.1101 134.431 49.1201 134.531C49.8401 141.141 51.9001 147.441 55.2501 153.241C58.1401 158.251 61.8601 162.641 66.3001 166.291C68.1001 167.771 70.0401 169.131 72.0401 170.331C72.1001 170.361 72.1501 170.401 72.2101 170.431C93.0601 183.541 118.86 184.941 140.8 174.451C140.32 174.401 139.85 174.341 139.37 174.281C133.66 173.511 128.23 171.651 123.23 168.761C110.04 161.141 101.79 147.491 101.18 132.241C101.17 132.001 101.17 131.761 101.18 131.511C101.21 130.801 101.21 130.091 101.18 129.391C101.01 125.131 99.8301 121.101 97.7001 117.391C93.5401 110.181 86.4101 105.481 78.1301 104.481C72.4701 103.801 66.8701 104.951 61.9201 107.801C54.0501 112.361 49.1601 120.501 48.8301 129.601Z" fill="#FD009C"/>
</svg>
