<svg width="80" height="81" viewBox="0 0 80 81" fill="none" xmlns="http://www.w3.org/2000/svg">
<path d="M59.9956 5.37513C49.4581 -0.707722 36.9016 -1.67707 25.5387 2.71881C25.4711 2.74511 25.4047 2.77266 25.3396 2.80272C25.297 2.819 25.2531 2.83403 25.2106 2.84906C23.8743 3.35127 22.5593 3.95742 21.3081 4.6525C8.16432 11.6108 0 25.1578 0 40.0199C0 52.1856 5.44163 63.5486 14.9297 71.1881C14.9347 71.1931 14.941 71.1969 14.946 71.2006C15.0312 71.272 15.1163 71.3459 15.2027 71.4161C16.3061 72.3228 17.4858 73.1569 18.7157 73.892C25.2344 77.9836 32.6084 80.0337 39.9975 80.0337C44.5712 80.0337 49.15 79.246 53.5283 77.6692C55.4282 78.2779 57.3994 78.5847 59.3732 78.5847C62.6795 78.5847 65.9908 77.7281 68.9715 76.0098C74.0274 73.0905 77.4414 68.1035 78.3419 62.3275C78.3469 62.2949 78.3519 62.2611 78.3544 62.2285C78.3582 62.2035 78.3632 62.1797 78.3669 62.1559C78.4784 61.4784 78.541 60.787 78.5548 60.1007C78.6387 57.8327 78.3231 55.6159 77.6568 53.5307C78.5022 51.1624 79.1321 48.6965 79.5279 46.1566C79.5392 46.0878 79.5479 46.0189 79.5542 45.95C79.5629 45.8987 79.573 45.8486 79.5817 45.7972C79.8147 44.3845 79.9449 42.9443 79.9725 41.5128C80.5198 26.6469 72.8664 12.803 59.9956 5.37513Z" fill="#2775CA"/>
<path d="M40.0008 74.672C59.2062 74.672 74.6556 59.2212 74.6556 40.0171C74.6556 20.813 59.2049 5.3623 40.0008 5.3623C20.7967 5.3623 5.34473 20.813 5.34473 40.0171C5.34473 59.2212 20.7954 74.672 40.0008 74.672Z" fill="#2775CA"/>
<path d="M49.5298 45.5033C49.5298 40.4499 46.4978 38.7166 40.4324 37.9952C36.1004 37.4179 35.2338 36.2619 35.2338 34.2405C35.2338 32.2192 36.6778 30.9192 39.5658 30.9192C42.1645 30.9192 43.6085 31.7859 44.3311 33.9512C44.4751 34.3846 44.9085 34.6726 45.3418 34.6726H47.6525C48.2298 34.6726 48.6631 34.2393 48.6631 33.6619V33.5179C48.0858 30.3406 45.4858 27.8859 42.1657 27.5979V24.1325C42.1657 23.5552 41.7324 23.1218 41.011 22.9766H38.8457C38.2683 22.9766 37.835 23.4099 37.6897 24.1325V27.4538C33.3577 28.0312 30.615 30.9192 30.615 34.5298C30.615 39.2952 33.503 41.1713 39.567 41.8939C43.6097 42.6153 44.9097 43.4819 44.9097 45.7926C44.9097 48.1032 42.8884 49.6912 40.1444 49.6912C36.3897 49.6912 35.0898 48.1032 34.6577 45.9366C34.5137 45.3592 34.0803 45.0699 33.647 45.0699H31.1923C30.615 45.0699 30.1816 45.5033 30.1816 46.0806V46.2246C30.759 49.834 33.0697 52.434 37.835 53.1554V56.6207C37.835 57.1981 38.2683 57.6314 38.9897 57.7754H41.1551C41.7324 57.7754 42.1657 57.3421 42.311 56.6207V53.1554C46.6418 52.4352 49.5298 49.4019 49.5298 45.5033Z" fill="white"/>
<path d="M32.6372 60.6656C21.3745 56.6229 15.5985 44.0602 19.7864 32.9415C21.9518 26.8775 26.7172 22.2561 32.6372 20.0908C33.2145 19.8027 33.5038 19.3694 33.5038 18.6468V16.6254C33.5038 16.0481 33.2145 15.6147 32.6372 15.4707C32.4932 15.4707 32.2039 15.4707 32.0598 15.6147C18.3412 19.9467 10.8331 34.5308 15.1651 48.2482C17.7638 56.3349 23.9732 62.543 32.0598 65.1429C32.6372 65.431 33.2158 65.1429 33.3598 64.5656C33.5038 64.4215 33.5038 64.2763 33.5038 63.9882V61.9669C33.5026 61.5323 33.0693 60.9549 32.6372 60.6656ZM47.9426 15.6147C47.3653 15.3254 46.7867 15.6147 46.6426 16.1921C46.4986 16.3361 46.4986 16.4814 46.4986 16.7694V18.7908C46.4986 19.3681 46.9319 19.9455 47.3653 20.2348C58.628 24.2775 64.404 36.8402 60.216 47.9589C58.0506 54.023 53.2853 58.6443 47.3653 60.8096C46.7879 61.0977 46.4986 61.531 46.4986 62.2537V64.275C46.4986 64.8524 46.7879 65.2857 47.3653 65.4297C47.5093 65.4297 47.7986 65.4297 47.9426 65.2857C61.66 60.9537 69.1694 46.3696 64.8373 32.6522C62.2374 24.4228 55.884 18.2134 47.9426 15.6147Z" fill="white"/>
<path d="M42.7451 59.3841C42.7451 50.2003 50.1906 42.7549 59.3743 42.7549C68.5581 42.7549 76.0035 50.2003 76.0035 59.3841C76.0035 68.5678 68.5581 76.0133 59.3743 76.0133C50.1906 76.012 42.7451 68.5678 42.7451 59.3841Z" fill="black"/>
<path d="M42.7451 59.3841C42.7451 50.2003 50.1906 42.7549 59.3743 42.7549C68.5581 42.7549 76.0035 50.2003 76.0035 59.3841C76.0035 68.5678 68.5581 76.0133 59.3743 76.0133C50.1906 76.012 42.7451 68.5678 42.7451 59.3841Z" fill="black"/>
<path d="M61.8405 47.1556L62.5606 48.8413C63.9733 52.1501 66.6083 54.7851 69.9172 56.1978L71.6029 56.918C72.0437 57.1058 72.4019 57.3751 72.6787 57.697C71.8396 51.6792 67.0792 46.9202 61.0615 46.0811C61.3821 46.3566 61.6526 46.7148 61.8405 47.1556Z" fill="#A6A6A6"/>
<path d="M47.1471 56.9163L48.8328 56.1962C52.1416 54.7835 54.7779 52.1484 56.1906 48.8396L56.9095 47.1539C57.0986 46.7131 57.3678 46.3537 57.6884 46.0781C51.6707 46.9172 46.9116 51.6763 46.0713 57.694C46.3481 57.3747 46.705 57.1041 47.1471 56.9163Z" fill="#A6A6A6"/>
<path d="M71.6029 61.8505L69.9172 62.5694C66.6083 63.9821 63.9721 66.6171 62.5606 69.9259L61.8405 71.6104C61.6526 72.0512 61.3821 72.4107 61.0615 72.6862C67.0792 71.8471 71.8383 67.0868 72.6787 61.0703C72.4019 61.3922 72.0437 61.6627 71.6029 61.8505Z" fill="#A6A6A6"/>
<path d="M56.9085 71.6111L56.1896 69.9266C54.7769 66.6178 52.1406 63.9816 48.8318 62.5701L47.1461 61.8512C46.7053 61.6634 46.3471 61.3929 46.0703 61.0723C46.9094 67.09 51.6697 71.8491 57.6875 72.6882C57.3669 72.4101 57.0976 72.0519 56.9085 71.6111Z" fill="#A6A6A6"/>
<path d="M53.4313 58.1025L54.2366 57.7593C55.8171 57.0843 57.0757 55.8256 57.7508 54.2464L58.0939 53.4411C58.5749 52.3139 60.1742 52.3139 60.6551 53.4411L60.9982 54.2464C61.6733 55.8269 62.9319 57.0855 64.5124 57.7593L65.3177 58.1025C66.4449 58.5834 66.4449 60.1814 65.3177 60.6623L64.5124 61.0067C62.9319 61.6818 61.6733 62.9404 60.9982 64.5209L60.6551 65.325C60.1742 66.4521 58.5749 66.4521 58.0939 65.325L57.7508 64.5209C57.0757 62.9404 55.8171 61.6818 54.2366 61.0067L53.4313 60.6623C52.3042 60.1814 52.3042 58.5834 53.4313 58.1025Z" fill="white"/>
</svg>
